PathFileType	4	(X/Y/Z)	S00_P01_T02_Participants1-2_P1_0-100.trc
DataRate	CameraRate	NumFrames	NumMarkers	Units	OrigDataRate	OrigDataStartFrame	OrigNumFrames
60	60	5	21	m	60	12	100
Frame#	Time	RHip			RKnee			RAnkle			RBigToe			RSmallToe			RHeel			LHip			LKnee			LAnkle			LBigToe			LSmallToe			LHeel			Neck			Head			Nose			RShoulder			RElbow			RWrist			LShoulder			LElbow			LWrist		
		X1	Y1	Z1	X2	Y2	Z2	X3	Y3	Z3	X4	Y4	Z4	X5	Y5	Z5	X6	Y6	Z6	X7	Y7	Z7	X8	Y8	Z8	X9	Y9	Z9	X10	Y10	Z10	X11	Y11	Z11	X12	Y12	Z12	X13	Y13	Z13	X14	Y14	Z14	X15	Y15	Z15	X16	Y16	Z16	X17	Y17	Z17	X18	Y18	Z18	X19	Y19	Z19	X20	Y20	Z20	X21	Y21	Z21
13	0.2166666666666666	-1.0510596571660211	0.9729843282850662	-0.9742742803607501	-0.875888142033721	0.9623429960141179	-0.7311340288411782	-0.8855665066000465	0.9404902624132939	-0.9651961992374873	-0.7902649287088787	0.935803894810243	-1.044909285142231	-0.812880460441505	0.9153744522752141	-1.038977386144784	-0.9081546826248545	0.9471519131093006	-1.0072296785795178	-1.0516042294797736	0.9735962897558719	-1.1184579510345305	-0.8780253045345132	0.9648147358447576	-1.3566322333382355	-0.8897412839682618	0.9427617783259885	-1.1237586961891544	-0.7892331349356754	0.9345470314367625	-1.05776523061047	-0.8129653050679362	0.9147540392160847	-1.061650606120579	-0.9115595029000569	0.9494067742401463	-1.0791790032963215	-1.0901352878664423	1.378864430410495	-1.0573771599959816	-1.0381373549943462	1.540414249997525	-1.0582499846239615	-0.9941456117410077	1.444606476289842	-1.0494817315937535	-1.0967749014147388	1.3263547508327518	-0.9260409211762555	-1.0387997858666784	1.1452520049181787	-0.8509015539976403	-0.8744757840379394	1.078556919600728	-0.9287793169585821	-1.0809039924200616	1.3310073632994601	-1.1781551624656663	-1.0444217036090309	1.158621234439331	-1.2645200576994495	-0.9078247986719015	1.1093275720853062	-1.1277120462413652
14	0.2333333333333333	-1.0510790415137536	0.9749772213770694	-0.9742819204644412	-0.8759079292650443	0.9643358054902182	-0.7311429618269485	-0.8863742211758294	0.9428382558753132	-0.9651991310028163	-0.7913287708468708	0.9382174024522619	-1.0452282295458823	-0.8139350326054638	0.9177904930669961	-1.0392526637329125	-0.9090893188490645	0.9495696137002928	-1.0071519643282902	-1.0516230753786342	0.9755887902873156	-1.1184643168320887	-0.8780427925803158	0.9668063291213507	-1.3566370070892586	-0.8897596119799279	0.9447540933733469	-1.1237653513847634	-0.7892514385526329	0.9365394001274828	-1.0577723225434288	-0.812983574950818	0.9167463671477938	-1.0616575633384124	-0.9115780762106106	0.9513992266539544	-1.079185965716048	-1.0900201421324225	1.3808851082414373	-1.0572978742228754	-1.0381469414996167	1.5424058328723047	-1.0582542216391881	-0.9977876737846828	1.4457383573241558	-1.0523320007439492	-1.096761370634054	1.328351672297694	-0.9260298954137853	-1.038693392879457	1.1467281925074628	-0.852170443809185	-0.8737124887326314	1.081151480595275	-0.9296078969620194	-1.0809249213184222	1.3330003012148304	-1.1781587083336034	-1.0444409950069762	1.1606134981527572	-1.26452398964374	-0.9080634994131029	1.1125182752809153	-1.1269583134095904
15	0.25	-1.0510903019158229	0.97674359278733	-0.9742847420874927	-0.8759196657589701	0.9661019621636451	-0.731145179634446	-0.8870837280554662	0.9449193763888707	-0.9651944204967796	-0.792265999299214	0.9403569965924493	-1.04550252226595	-0.8148639542935383	0.9199322715339638	-1.0394884288412272	-0.9099109963151739	0.9517124649923226	-1.0070756294926129	-1.051633912261339	0.9773548863456093	-1.1184664868472785	-0.8780524923241217	0.9685716533834239	-1.356637677446487	-0.8897700357232359	0.946519926055589	-1.123767033826556	-0.7892618912259839	0.938305208991789	-1.0577737271526297	-0.8129940129065618	0.9185121354514955	-1.0616590156851842	-0.9115886981531085	0.9531651768851054	-1.0791878629176541	-1.0898532702598216	1.3826905054416236	-1.05718399889269	-1.0381554321337907	1.5441700270302614	-1.0582579623827728	-1.001006915009368	1.4467417314299356	-1.0548528626636116	-1.0967685920636228	1.3301165641431816	-0.9260340871358239	-1.0385941276492816	1.14804381834198	-0.8532919451873586	-0.8730373554919215	1.0834507137125566	-0.9303260815426642	-1.0809371813515853	1.3347672588946302	-1.178158182604829	-1.044452051313845	1.16237968006862	-1.2645241616769138	-0.9082746991659767	1.1153482061616304	-1.1262918904345538
16	0.2666666666666666	-1.0510957054362005	0.9782735535872121	-0.9742842838549692	-0.8759255690503431	0.9676316336318725	-0.7311429131212073	-0.8876935635071713	0.9467219732972785	-0.9651849097348235	-0.7930736147040197	0.9422105500213243	-1.0457338519701544	-0.815664305577841	0.9217876709243827	-1.039686517392206	-0.9106177443270281	0.9535684901214725	-1.0070039643882591	-1.0516389884243962	0.9788846619712409	-1.1184658151872333	-0.878056632282772	0.9701007842451772	-1.3566356416953496	-0.8897747877191066	0.9480494008268991	-1.1237653932776681	-0.7892667054030176	0.9398346106965252	-1.057771357534414	-0.8129988254886026	0.9200414987673433	-1.061656810203218	-0.911593607706034	0.9546947503868257	-1.0791863661247603	-1.0897118527039857	1.3842528280553792	-1.057087397453911	-1.0381627817845696	1.5456973554146092	-1.058261191339527	-1.003260298864333	1.4477363648474495	-1.0566178355935514	-1.0967842569282396	1.3316425173887902	-0.9260445608030821	-1.0385045315092474	1.1491888441156193	-0.8542610515873799	-0.8724537949637516	1.0854417905350553	-0.9309360110897835	-1.080943179498463	1.3362981290306761	-1.1781550313495994	-1.0444571887107326	1.1639097473443085	-1.2645218761546575	-0.9084574956769611	1.1178008006516003	-1.1257160216581963
17	0.2833333333333333	-1.0510976587899081	0.9795584636766871	-0.9742821740066314	-0.8759279939609529	0.9689162392483436	-0.731138521700379	-0.8882029013085214	0.94823588510597	-0.9651734611666637	-0.7937494453046269	0.9437674826120361	-1.0459241094912712	-0.8163339840377525	0.923346121607399	-1.0398489371694961	-0.9112083035583308	0.9551272441658368	-1.0069402085232948	-1.0516406903309847	0.9801694482144447	-1.1184637342688362	-0.8780575768053497	0.9713850430181921	-1.356632376165488	-0.8897762372775555	0.9493338911367131	-1.1237621741865749	-0.789268229183632	0.941119008458944	-1.0577672362418373	-0.8130003545519235	0.9213258623582615	-1.0616528996933274	-0.9115951812135065	0.9559793217899969	-1.079183242713622	-1.0896203345559552	1.38555804421029	-1.0570245259992053	-1.038168951400082	1.546979610511044	-1.0582638953034826	-1.0045124407564692	1.4487228160438868	-1.0575985689573242	-1.096800689824946	1.3329229254171824	-0.9260557428558015	-1.0384272498425229	1.1501543798632936	-0.8550737770644967	-0.8719650889728362	1.0871136119292797	-0.9314400787099957	-1.080945471624139	1.3375840413983533	-1.178150780559649	-1.044458865746509	1.1651949076182317	-1.2645185082140407	-0.9086114700960995	1.1198616125486522	-1.125233739700566
